<svg width="16" height="16" viewBox="0 0 16 16" fill="none" xmlns="http://www.w3.org/2000/svg">
<path fill-rule="evenodd" clip-rule="evenodd" d="M7.00041 9C7.00041 9.55229 7.44812 10 8.00041 10C8.55269 10 9.00041 9.55229 9.00041 9V7C9.00041 6.44772 8.55269 6 8.00041 6C7.44812 6 7.00041 6.44772 7.00041 7V9ZM7.00041 13C7.00041 13.5523 7.44812 14 8.00041 14C8.55269 14 9.00041 13.5523 9.00041 13C9.00041 12.4477 8.55269 12 8.00041 12C7.44812 12 7.00041 12.4477 7.00041 13ZM15.8954 14.549L8.89541 0.509918C8.55641 -0.169973 7.44441 -0.169973 7.10541 0.509918L0.105409 14.549C-0.0495905 14.8588 -0.0325905 15.2279 0.14941 15.5237C0.331409 15.8195 0.653409 16 1.00041 16H15.0004C15.3474 16 15.6684 15.8195 15.8514 15.5237C16.0334 15.2279 16.0504 14.8588 15.8954 14.549Z" fill="#D72C0D"/>
</svg>
